<svg width="70" height="56" viewBox="0 0 70 56" fill="none" xmlns="http://www.w3.org/2000/svg">
<path d="M11.3906 41.8217C16.8404 52.307 27.7232 55.3666 32.1575 55.8077C55.5648 58.136 64.332 38.7231 64.332 29.5275L61.1162 30.4655C58.9329 47.8684 44.3548 52.7983 37.2012 52.977C24.6225 53.4594 16.9871 45.3615 14.7417 41.2523L11.3906 41.8217Z" fill="white"/>
<path d="M32.6145 36.5623L36.4734 35.4233C29.4055 35.8253 24.4792 34.6305 22.8995 33.9829C21.6538 33.9427 18.7247 32.1237 17.4158 31.2192L9.96883 25.7253C4.98611 21.8662 1.24681 21.6607 0 22.0404C1.23214 22.6032 5.50063 27.4338 7.48085 29.7787C10.2295 33.4368 9.49493 34.865 8.78408 35.1218L5.43292 36.3781C2.92802 39.2992 5.13391 40.6101 6.54997 40.9005C7.26759 41.1685 24.2253 38.12 32.6145 36.5623Z" fill="white"/>
<path d="M11.035 24.6701C10.9403 24.5495 9.14507 23.425 8.25933 22.8779L8.20856 22.8444L8.59783 21.4374L9.10558 19.7625L9.78258 17.7022L10.4257 16.312L11.5766 14.0006L12.626 12.3424L14.9616 9.42791L17.4158 6.96571L20.073 4.939C20.3438 4.74917 21.4134 4.07472 23.5257 2.89554C25.6379 1.71637 29.2915 0.807419 30.8542 0.500343C30.9896 0.352946 33.8105 0.115102 35.2039 0.0146046C38.088 -0.0925932 41.1559 0.416596 42.3294 0.684591L43.6157 1.00283L45.579 1.63932L47.1699 2.25906L49.4548 3.33104L51.5535 4.58726L52.569 5.2405L53.9061 6.21198L55.0231 7.20021L56.8172 8.95892L57.8158 10.1314C59.2239 11.6456 61.0654 14.8827 61.8101 16.312L62.5548 18.1377C61.0924 17.7491 59.6775 17.786 59.1528 17.853C58.9497 17.2366 57.7593 15.2289 57.1895 14.3021C56.2688 12.5065 53.4435 9.85782 52.1459 8.75793C50.3857 7.41795 48.2757 6.17848 47.4407 5.72624C45.2066 4.25227 40.7779 3.43712 38.8428 3.21379H38.3181C37.6141 2.919 34.7865 3.06863 33.4607 3.18029C31.5109 3.35449 28.936 4.04569 27.8923 4.36952C25.1708 5.3611 23.4749 6.34598 22.9672 6.71447C22.0194 7.02266 19.616 9.08734 18.5328 10.0812C17.5986 10.8851 16.0336 12.8951 15.3678 13.7996C13.716 15.8095 12.389 19.2041 11.9321 20.6502C11.6748 21.2532 11.2269 23.5814 11.035 24.6701Z" fill="white"/>
<path d="M37.0321 25.5912L19.6501 30.3313V30.4151L22.4766 31.6378L25.3707 32.6595L29.7205 33.6478L32.2592 33.9158C34.6558 34.2909 38.166 33.8934 39.6216 33.6478L45.9346 32.5758L50.8936 31.6378L54.9049 30.6161L62.5042 28.5559L66.4308 27.1321C69.8429 25.752 70.1881 24.5918 69.9343 24.1842C69.4333 22.9514 67.6155 21.7723 66.7693 21.3368L60.8794 22.4087C59.4171 21.4842 62.2334 20.4602 63.8243 20.0638C63.364 19.7824 61.7369 19.4887 60.9809 19.3771C59.9654 19.0153 56.8117 19.6841 55.3618 20.0638L53.5509 20.5663L50.4536 21.5043L47.3563 22.6265L45.4438 23.3467L37.8952 25.3232L37.0321 25.5912Z" fill="white"/>
<path d="M34.9164 21.672L37.9798 25.3569L44.5129 23.6149L40.4678 20.533L33.9178 15.1564L26.3693 9.10974L24.6091 7.92051C24.1081 7.66592 24.0957 7.81443 24.1521 7.92051L24.5075 8.60725L28.8403 14.2686L33.0885 19.461L30.8206 20.466C29.7915 20.9216 29.9405 21.9511 30.1436 22.409C30.4685 23.0789 31.2832 23.1459 31.6499 23.0957L34.9164 21.672Z" fill="white"/>
<path d="M37.9091 25.3145L37.0489 25.5813L37.5212 26.165L40.8778 29.5171L42.4801 31.0014L41.3838 29.5171L37.9091 25.3145Z" fill="white"/>
<path d="M46.9331 25.3812L44.4705 23.5801L45.3982 23.2965L46.9331 25.3812Z" fill="white"/>
</svg>
